<svg xmlns="http://www.w3.org/2000/svg" viewBox="0 0 646.94 119.38"><defs><style>.cls-1{fill:#43bea9;}</style></defs><g id="Layer_2" data-name="Layer 2"><g id="Layer_1-2" data-name="Layer 1"><path class="cls-1" d="M351.25,10v99.38H10V10H351.25m10-10H0V119.38H361.25V0Z"/><path class="cls-1" d="M65.67,27.35,87.16,83.12,74.38,84.61l-4.64-13H49.41L44.84,83.78H32L53.56,27.35ZM59.36,43.78,52.89,61.29H66Z"/><path class="cls-1" d="M92.39,83.78V43.54h8l2.32,4.31A34,34,0,0,1,107.62,45a31.77,31.77,0,0,1,5.47-2,21.3,21.3,0,0,1,5.44-.74q5.31,0,8.42,2.11a12,12,0,0,1,4.52,5.73,22,22,0,0,1,1.41,8.09V83.78H119.77V59.13a8,8,0,0,0-1.16-4.56,4.33,4.33,0,0,0-3.9-1.74,9.6,9.6,0,0,0-3.11.58,29,29,0,0,0-3.32,1.37c-1.08.52-2.06,1-2.94,1.53V83.78Z"/><path class="cls-1" d="M174,77.22a20.2,20.2,0,0,1-4,3.78,22.93,22.93,0,0,1-5,2.74,15.68,15.68,0,0,1-5.73,1,22.39,22.39,0,0,1-10.66-2.45,17.26,17.26,0,0,1-7.18-7.18,23.6,23.6,0,0,1-2.58-11.45,24,24,0,0,1,2.58-11.62,17.72,17.72,0,0,1,7.22-7.26,22.89,22.89,0,0,1,11.12-2.53,15.59,15.59,0,0,1,5.18.91,19.42,19.42,0,0,1,4.94,2.58,17.82,17.82,0,0,1,4.07,4.06l-3.57,8A22.49,22.49,0,0,0,165.2,54a10.34,10.34,0,0,0-4.85-1.29A7.07,7.07,0,0,0,156,54.07a8.77,8.77,0,0,0-2.91,3.82,14,14,0,0,0-.91,5.73,15.39,15.39,0,0,0,.95,5.64A8,8,0,0,0,156,73a7.45,7.45,0,0,0,4.39,1.33,9.3,9.3,0,0,0,4.9-1.41,27,27,0,0,0,4.9-4Zm-7.3-51.11,12.94-.91V83.78h-6.72l-6.22-8.71Z"/><path class="cls-1" d="M189.15,83.78V43.62h6.55l3.65,5.72a30,30,0,0,1,4-2.65,31.72,31.72,0,0,1,4.89-2.24,13.86,13.86,0,0,1,4.69-.91l2.57,10.37a14.58,14.58,0,0,0-4.27.74,26.81,26.81,0,0,0-4.73,2,30.5,30.5,0,0,0-4.44,2.94V83.78Z"/><path class="cls-1" d="M232.29,67.18A8.77,8.77,0,0,0,234,70.92a8.91,8.91,0,0,0,3.36,2.41,14,14,0,0,0,5.43.91,18.6,18.6,0,0,0,6.35-1,33.37,33.37,0,0,0,5-2.24l3.74,9.13a20.15,20.15,0,0,1-4.15,2.36,27.19,27.19,0,0,1-5.44,1.66,31.52,31.52,0,0,1-6.43.63,29.27,29.27,0,0,1-12.7-2.54A18.33,18.33,0,0,1,221.09,75a21.44,21.44,0,0,1-2.82-11.2,23.37,23.37,0,0,1,2.66-11.45,18.58,18.58,0,0,1,7.38-7.43,22.13,22.13,0,0,1,10.87-2.61,18.19,18.19,0,0,1,10.5,2.86,17.17,17.17,0,0,1,6.22,7.68,26.5,26.5,0,0,1,2,10.45v3.9Zm13.36-7.46a8.37,8.37,0,0,0-1-3.45,7.07,7.07,0,0,0-2.28-2.45,6.24,6.24,0,0,0-3.41-.91,6.51,6.51,0,0,0-3.27.87,6.31,6.31,0,0,0-2.41,2.37,10.15,10.15,0,0,0-1.2,3.57Z"/><path class="cls-1" d="M297.93,83.78,291,61l-6.8,22.74H272.87l-12.2-38.25L273,42.12l6,24.57,5.81-23.15h12.94l6.14,23.15,5.56-23.15h13.2l-13.2,40.24Z"/><path class="cls-1" d="M582.66,54.74a6.16,6.16,0,0,0-3.41-.92,6.42,6.42,0,0,0-3.27.88,6.28,6.28,0,0,0-2.41,2.36,10.29,10.29,0,0,0-1.2,3.57H586a8.42,8.42,0,0,0-1-3.45A7,7,0,0,0,582.66,54.74Z"/><path class="cls-1" d="M358.25,0V119.38H646.94V0ZM467.4,84.69H455.11L444.83,46.52,434.78,84.69H422.59L405.66,28.93l12.86-1.49,10.37,40.74,9.46-39.91H451.3l10.2,39.91,9.55-39.91H484Zm53.77,0H514l-3.16-4.23a17.13,17.13,0,0,1-4.56,3.82,10.77,10.77,0,0,1-5.39,1.41q-7.39,0-11-3.69a13.26,13.26,0,0,1-3.65-9.76c0-4.25,1.44-7.37,4.31-9.33s6.59-3,11.12-3H508v-.33a6.09,6.09,0,0,0-1.86-3.94,5.73,5.73,0,0,0-3.94-1.37,21.47,21.47,0,0,0-5.61.83,41.59,41.59,0,0,0-5.35,1.82l-3.32-10A24.17,24.17,0,0,1,492.5,45a45.85,45.85,0,0,1,5.89-1.33,36,36,0,0,1,5.6-.5,19.44,19.44,0,0,1,9,2,14.78,14.78,0,0,1,6,5.56A15.56,15.56,0,0,1,521.17,59Zm30.41-29.12a26,26,0,0,0-4.73,2,30.5,30.5,0,0,0-4.44,2.94V84.69H529.47V44.53H536l3.65,5.73a30,30,0,0,1,4-2.66,32.69,32.69,0,0,1,4.89-2.24,13.86,13.86,0,0,1,4.69-.91l2.57,10.37A14.29,14.29,0,0,0,551.58,55.57ZM598.26,68.1H572.61a8.18,8.18,0,0,0,5.11,6.14,13.79,13.79,0,0,0,5.43.91,18.6,18.6,0,0,0,6.35-1,33.37,33.37,0,0,0,5-2.24L598.26,81a19.46,19.46,0,0,1-4.15,2.37,28.56,28.56,0,0,1-5.44,1.66,32.25,32.25,0,0,1-6.43.62,29.41,29.41,0,0,1-12.7-2.53,18.45,18.45,0,0,1-8.13-7.26,21.5,21.5,0,0,1-2.82-11.21,23.37,23.37,0,0,1,2.66-11.45,18.56,18.56,0,0,1,7.38-7.42A22,22,0,0,1,579.5,43.2,18.19,18.19,0,0,1,590,46.07a17.09,17.09,0,0,1,6.22,7.67,26.51,26.51,0,0,1,2,10.46Z"/><path class="cls-1" d="M498.31,69.05a4.45,4.45,0,0,0-1.21,3,3.32,3.32,0,0,0,.54,1.83,4,4,0,0,0,3.45,1.82,8.58,8.58,0,0,0,3.52-.79,12.14,12.14,0,0,0,3.45-2.36v-4.9h-6.31A4.34,4.34,0,0,0,498.31,69.05Z"/></g></g></svg>