<svg xmlns="http://www.w3.org/2000/svg" viewBox="0 0 646.94 119.38"><defs><style>.cls-1{fill:#43bea9;}</style></defs><g id="Layer_2" data-name="Layer 2"><g id="Layer_1-2" data-name="Layer 1"><path class="cls-1" d="M636.94,10v99.38H371.25V10H636.94m10-10H361.25V119.38H646.94V0Z"/><path class="cls-1" d="M242.33,53.82a6.16,6.16,0,0,0-3.4-.91,6.51,6.51,0,0,0-3.27.87,6.31,6.31,0,0,0-2.41,2.37,10.15,10.15,0,0,0-1.2,3.57h13.61a8.54,8.54,0,0,0-1-3.45A6.92,6.92,0,0,0,242.33,53.82Z"/><polygon class="cls-1" points="52.89 61.29 66 61.29 59.36 43.78 52.89 61.29"/><path class="cls-1" d="M0,0V119.38H364.25V0ZM74.38,84.61l-4.64-13H49.41L44.84,83.78H32L53.56,27.35H65.67L87.16,83.12Zm58.51-.83H119.77V59.13a8,8,0,0,0-1.16-4.56,4.33,4.33,0,0,0-3.9-1.74,9.6,9.6,0,0,0-3.11.58,29,29,0,0,0-3.32,1.37c-1.08.52-2.06,1-3,1.53V83.78H92.39V43.54h8l2.32,4.31A34,34,0,0,1,107.62,45a32.09,32.09,0,0,1,5.47-2,21.3,21.3,0,0,1,5.44-.74q5.31,0,8.42,2.11a12.09,12.09,0,0,1,4.53,5.73,22,22,0,0,1,1.41,8.09Zm46.71,0h-6.72l-2.32-3.25-.62.47a23.16,23.16,0,0,1-5,2.74,15.68,15.68,0,0,1-5.73,1,22.39,22.39,0,0,1-10.66-2.45,17.26,17.26,0,0,1-7.18-7.18,23.6,23.6,0,0,1-2.57-11.45,24,24,0,0,1,2.57-11.62,17.72,17.72,0,0,1,7.22-7.26,22.89,22.89,0,0,1,11.12-2.53,15.59,15.59,0,0,1,5.18.91c.61.22,1.2.47,1.79.74V26.11l12.94-.91Zm31.66-29.13a26.81,26.81,0,0,0-4.73,2,30.5,30.5,0,0,0-4.44,2.94V83.78H189.15V43.62h6.55l3.65,5.72a30,30,0,0,1,4-2.65,31.72,31.72,0,0,1,4.89-2.24,13.86,13.86,0,0,1,4.69-.91l2.57,10.37A14.58,14.58,0,0,0,211.26,54.65Zm46.68,12.53H232.3A8.65,8.65,0,0,0,234,70.92a8.91,8.91,0,0,0,3.36,2.41,14,14,0,0,0,5.43.91,18.6,18.6,0,0,0,6.35-1,33.37,33.37,0,0,0,5-2.24l3.74,9.13a20.15,20.15,0,0,1-4.15,2.36,27.19,27.19,0,0,1-5.44,1.66,31.52,31.52,0,0,1-6.43.63,29.19,29.19,0,0,1-12.69-2.54A18.3,18.3,0,0,1,221.09,75a21.44,21.44,0,0,1-2.82-11.2,23.37,23.37,0,0,1,2.66-11.45,18.58,18.58,0,0,1,7.38-7.43,22.15,22.15,0,0,1,10.87-2.61,18.17,18.17,0,0,1,10.5,2.86,17.17,17.17,0,0,1,6.22,7.68,26.5,26.5,0,0,1,2,10.45Zm51.44,16.6H297.93L291,61l-6.8,22.74H272.87l-12.2-38.25L273,42.12l6,24.57,5.81-23.15h12.94l6.14,23.15,5.56-23.15h13.2Z"/><path class="cls-1" d="M166.66,54.82c-.49-.32-1-.62-1.45-.87a10.37,10.37,0,0,0-4.86-1.29A7.07,7.07,0,0,0,156,54.07a8.84,8.84,0,0,0-2.91,3.82,14,14,0,0,0-.91,5.73,15.39,15.39,0,0,0,.95,5.64A8,8,0,0,0,156,73a7.45,7.45,0,0,0,4.39,1.33,9.3,9.3,0,0,0,4.9-1.41c.44-.26.88-.57,1.33-.89Z"/><path class="cls-1" d="M483.08,27.35l-16.6,56.43H454.2L443.91,45.61l-10,38.17h-12.2L404.75,28l12.86-1.5L428,67.27l9.46-39.92h12.95l10.2,39.92,9.54-39.92Z"/><path class="cls-1" d="M485.32,45.94a24.32,24.32,0,0,1,4.6-1.82,44.74,44.74,0,0,1,5.9-1.33,36,36,0,0,1,5.6-.5,19.32,19.32,0,0,1,9,2,14.84,14.84,0,0,1,6,5.56,15.56,15.56,0,0,1,2.15,8.22V83.78h-7.21l-3.16-4.23a17.32,17.32,0,0,1-4.56,3.82,10.78,10.78,0,0,1-5.4,1.41q-7.38,0-11-3.7a13.23,13.23,0,0,1-3.65-9.75q0-6.39,4.31-9.33T499,59h6.39v-.33a6.05,6.05,0,0,0-1.87-3.94,5.65,5.65,0,0,0-3.94-1.37,21,21,0,0,0-5.6.83A41.59,41.59,0,0,0,488.64,56ZM495.07,73a4,4,0,0,0,1.41,1.33,4,4,0,0,0,2,.5A8.63,8.63,0,0,0,502,74a12,12,0,0,0,3.44-2.37V66.77h-6.3a4.35,4.35,0,0,0-3.45,1.37,4.48,4.48,0,0,0-1.2,3A3.26,3.26,0,0,0,495.07,73Z"/><path class="cls-1" d="M526.89,83.78V43.62h6.56l3.65,5.72a30.46,30.46,0,0,1,4-2.65,32.27,32.27,0,0,1,4.9-2.24,13.86,13.86,0,0,1,4.69-.91l2.57,10.37a14.52,14.52,0,0,0-4.27.74,26.49,26.49,0,0,0-4.73,2,30.5,30.5,0,0,0-4.44,2.94V83.78Z"/><path class="cls-1" d="M570,67.18a8.77,8.77,0,0,0,1.75,3.74,8.91,8.91,0,0,0,3.36,2.41,14,14,0,0,0,5.43.91,18.6,18.6,0,0,0,6.35-1A33.37,33.37,0,0,0,592,71l3.73,9.13a19.8,19.8,0,0,1-4.14,2.36,27.19,27.19,0,0,1-5.44,1.66,31.52,31.52,0,0,1-6.43.63A29.27,29.27,0,0,1,567,82.24,18.33,18.33,0,0,1,558.84,75,21.44,21.44,0,0,1,556,63.78a23.37,23.37,0,0,1,2.65-11.45,18.61,18.61,0,0,1,7.39-7.43,22.13,22.13,0,0,1,10.87-2.61,18.21,18.21,0,0,1,10.5,2.86,17.17,17.17,0,0,1,6.22,7.68,26.49,26.49,0,0,1,2,10.45v3.9Zm13.36-7.46a8.37,8.37,0,0,0-1-3.45,7.1,7.1,0,0,0-2.29-2.45,6.18,6.18,0,0,0-3.4-.91,6.57,6.57,0,0,0-3.28.87,6.35,6.35,0,0,0-2.4,2.37,10.15,10.15,0,0,0-1.21,3.57Z"/></g></g></svg>